<?xml version="1.0" encoding="UTF-8" standalone="no"?>
<svg
   width="500"
   height="500"
   version="1.1"
   id="svg1"
   sodipodi:docname="Black_Lock.svg"
   inkscape:version="1.3.2 (091e20e, 2023-11-25, custom)"
   xmlns:inkscape="http://www.inkscape.org/namespaces/inkscape"
   xmlns:sodipodi="http://sodipodi.sourceforge.net/DTD/sodipodi-0.dtd"
   xmlns="http://www.w3.org/2000/svg"
   xmlns:svg="http://www.w3.org/2000/svg">
  <defs
     id="defs1" />
  <sodipodi:namedview
     id="namedview1"
     pagecolor="#ffffff"
     bordercolor="#666666"
     borderopacity="1.0"
     inkscape:showpageshadow="2"
     inkscape:pageopacity="0.0"
     inkscape:pagecheckerboard="0"
     inkscape:deskcolor="#d1d1d1"
     inkscape:zoom="1.4142136"
     inkscape:cx="194.10081"
     inkscape:cy="235.113"
     inkscape:window-width="1920"
     inkscape:window-height="1009"
     inkscape:window-x="-8"
     inkscape:window-y="396"
     inkscape:window-maximized="1"
     inkscape:current-layer="svg1" />
  <path
     id="path1"
     style="fill:#000000;fill-opacity:1;stroke-width:22.5"
     d="M 250 25 C 175.75007 25 115 85.750074 115 160 L 115 227.5 L 92.5 227.5 L 92.5 475 L 407.5 475 L 407.5 227.5 L 385 227.5 L 385 160 C 385 85.750074 324.24993 25 250 25 z M 250 70 C 299.49995 70 340 110.50005 340 160 L 340 227.5 L 160 227.5 L 160 160 C 160 110.50005 200.50005 70 250 70 z M 156.25 320 A 30 30 0 0 1 186.25 350 A 30 30 0 0 1 156.25 380 A 30 30 0 0 1 126.25 350 A 30 30 0 0 1 156.25 320 z M 250 320 A 30 30 0 0 1 280 350 A 30 30 0 0 1 250 380 A 30 30 0 0 1 220 350 A 30 30 0 0 1 250 320 z M 343.75 320 A 30 30 0 0 1 373.75 350 A 30 30 0 0 1 343.75 380 A 30 30 0 0 1 313.75 350 A 30 30 0 0 1 343.75 320 z " />
</svg>
